<svg xmlns="http://www.w3.org/2000/svg" style="display: none;"><symbol id="language" viewBox="0 0 512 512"><title>language</title><path d="m341 452 80 60v-60h91v-271h-181v-181h-331v271h91v60l80-60h10v181zm141-30h-91v30l-40-30h-140v-211h271zm-321-181-40 30v-30h-91v-211h271v151h-65.730469l-69.269531-138.539062-73.417969 146.832031 26.832031 13.417969 18.355469-36.710938h56.460938l7.5 15h-20.730469v60zm18.230469-105h-26.460938l13.230469-26.460938zm0 0"/><path d="m324.964844 340.40625c-16.085938 13.546875-31.273438 20.59375-38.964844 20.59375v30c19.328125 0 42.546875-14.144531 60-29.132812 17.453125 14.988281 40.671875 29.132812 60 29.132812v-30c-7.691406 0-22.878906-7.046875-38.964844-20.59375 8.710938-10.589844 17.875-24.453125 21.878906-39.40625h32.085938v-30h-60v-30h-30v30h-60v30h32.085938c4.003906 14.953125 13.167968 28.816406 21.878906 39.40625zm21.035156-21.691406c-4.730469-6.085938-8.496094-12.121094-11.070312-17.726563h22.140624c-2.574218 5.605469-6.339843 11.640625-11.070312 17.726563zm0 0"/></symbol><symbol id="online-class" viewBox="-8 0 480 480"><title>online-class</title><path d="m432 456c0 4.417969-3.582031 8-8 8h-80v-27.359375c-.078125-25.226563-16.941406-47.316406-41.257812-54.039063l-46.742188-12.714843v-12.109375c14.984375-10.433594 23.941406-27.519532 24-45.777344v-15.144531c2.039062-.933594 3.328125-1.597657 3.574219-1.695313 2.714843-1.355468 4.425781-4.128906 4.425781-7.160156v-48l42.871094-16.488281c3.097656-1.183594 5.144531-4.15625 5.144531-7.472657 0-3.316406-2.046875-6.285156-5.144531-7.472656l-104-40c-1.847656-.703125-3.894532-.703125-5.742188 0l-104 40c-3.078125 1.183594-5.113281 4.136719-5.128906 7.433594v36.6875l-21.65625 21.65625 11.3125 11.3125 10.34375-10.34375v12.6875h16v-12.6875l10.34375 10.34375 11.3125-11.3125-21.65625-21.65625v-25.039062l32 12.351562v48c-.015625 3.046875 1.699219 5.839844 4.425781 7.199219.246094.121093 1.535157.761719 3.574219 1.695312v15.105469c-.140625 18.3125 8.859375 35.492188 24 45.800781v12.085938l-46.769531 12.722656c-24.300781 6.726563-41.15625 28.8125-41.230469 54.03125v27.359375h-80c-4.417969 0-8-3.582031-8-8v-312h224v-16h-224v-40c0-4.417969 3.582031-8 8-8h216v-16h-216c-13.253906 0-24 10.746094-24 24v368c0 13.253906 10.746094 24 24 24h400c13.253906 0 24-10.746094 24-24v-296h-16zm-224-80v-10.398438c10.425781 3.207032 21.574219 3.207032 32 0v10.398438c.027344 2.292969 1.042969 4.460938 2.792969 5.945312l-18.792969 15.65625-18.792969-15.648437c1.75-1.484375 2.769531-3.65625 2.792969-5.953125zm16-191.433594 81.710938 31.433594-81.710938 31.433594-81.710938-31.433594zm-2.871094 78.90625c1.847656.703125 3.894532.703125 5.742188 0l45.128906-17.359375v36.796875c-15.070312 7.25-31.335938 11.6875-48 13.089844-16.664062-1.414062-32.929688-5.851562-48-13.097656v-36.796875zm-37.128906 48.527344v-8.585938c12.769531 5.042969 26.285156 7.945313 40 8.585938 13.714844-.640625 27.230469-3.542969 40-8.585938v8.585938c-.019531 14.292969-7.664062 27.492188-20.054688 34.621094-12.390624 7.128906-27.644531 7.101562-40.007812-.070313-3.019531-1.714843-5.785156-3.839843-8.226562-6.3125-7.539063-7.453125-11.761719-17.632812-11.710938-28.238281zm-64 124.640625c.058594-18.015625 12.101562-33.792969 29.464844-38.601563l37.734375-10.261718 31.679687 26.398437c2.96875 2.472657 7.273438 2.472657 10.242188 0l31.679687-26.398437 37.710938 10.253906c17.371093 4.804688 29.421875 20.585938 29.488281 38.609375v27.359375h-24v-32h-16v32h-128v-32h-16v32h-24zm0 0"/><path d="m48 96h16v16h-16zm0 0"/><path d="m80 96h16v16h-16zm0 0"/><path d="m112 96h16v16h-16zm0 0"/><path d="m440 0h-160c-13.253906 0-24 10.746094-24 24v96c0 13.253906 10.746094 24 24 24h24v32c0 3.398438 2.144531 6.425781 5.351562 7.550781.851563.292969 1.746094.445313 2.648438.449219 2.429688 0 4.730469-1.101562 6.246094-3l29.59375-37h92.160156c13.253906 0 24-10.746094 24-24v-96c0-13.253906-10.746094-24-24-24zm8 120c0 4.417969-3.582031 8-8 8h-96c-2.429688 0-4.730469 1.101562-6.246094 3l-17.753906 22.191406v-17.191406c0-4.417969-3.582031-8-8-8h-32c-4.417969 0-8-3.582031-8-8v-96c0-4.417969 3.582031-8 8-8h160c4.417969 0 8 3.582031 8 8zm0 0"/><path d="m304 32h112v16h-112zm0 0"/><path d="m304 64h112v16h-112zm0 0"/><path d="m304 96h112v16h-112zm0 0"/></symbol><symbol id="teacher-pointing-blackboard" viewBox="0 0 31.312 31.312"><title>teacher-pointing-blackboard</title><rect x="23.695" y="15.25" width="5.052" height="1.878"/><polygon points="2.931,0.463 2.931,3.416 4.22,3.018 4.22,1.753 30.021,1.753 30.021,18.201 9.49,18.201 9.423,19.49 31.312,19.49 31.312,0.463 "/><circle cx="4.983" cy="7.526" r="3.821"/><polygon points="8.227,29.105 8.227,22.302 8.227,21.661 8.227,20.791 8.47,20.791 8.825,13.886 15.415,10.471 14.861,9.403 15.022,9.683 22.083,5.641 21.764,5.081 14.713,9.117 14.549,8.8 8.524,11.922 6.374,11.922 4.917,13.611 3.507,11.922 0.411,12.497 0.213,19.365 1.526,19.365 1.597,20.791 1.796,20.791 1.796,21.661 1.796,22.302 1.796,29.105 1.533,29.105 0,29.438 0,30.85 1.305,30.85 2.829,30.602 2.843,30.85 4.531,30.85 4.531,29.275 4.531,29.105 4.531,22.302 5.492,22.302 5.492,29.105 5.492,29.275 5.492,30.85 7.18,30.85 7.194,30.602 8.718,30.85 10.023,30.85 10.023,29.438 8.489,29.105 "/></symbol><symbol id="elearning" viewBox="0 0 64 64"><title>elearning</title><path d="m39 27c6.065 0 11-4.935 11-11s-4.935-11-11-11-11 4.935-11 11 4.935 11 11 11zm0-20c4.962 0 9 4.037 9 9s-4.038 9-9 9-9-4.037-9-9 4.038-9 9-9z"/><path d="m34 10.382v11.236l11.236-5.618zm2 3.236 4.764 2.382-4.764 2.382z"/><path d="m58 1h-38c-2.757 0-5 2.243-5 5v19.509l-10.917 5.953c-.976.501-1.364 1.703-.865 2.681l.485.952c-.44.529-.703 1.191-.703 1.905v5.285c-1.228.669-2 2.442-2 3.715 0 1.654 1.346 3 3 3s3-1.346 3-3c0-1.273-.772-3.046-2-3.715v-5.285c0-.071.012-.14.026-.208.083.04.166.082.256.111.199.065.404.097.608.097.315 0 .632-.077.933-.231l.577-.315 1.844 3.703.773-.185c.022-.005.111-.027.251-.062.449 1.593 1.439 2.938 2.753 3.846-4.102 1.599-7.021 5.583-7.021 10.244v9h19v-5.333l.1.133c1.503 2.004 3.896 3.2 6.4 3.2s4.897-1.196 6.4-3.2l3.355-4.474c.48-.64.745-1.434.745-2.234v-.368c0-1.428-.817-2.656-2-3.281v-4.443h18c2.757 0 5-2.243 5-5v-32c0-2.757-2.243-5-5-5zm-41 5c0-1.654 1.346-3 3-3h38c1.654 0 3 1.346 3 3v23h-39.668l-.056-.113.641-.349c.976-.501 1.364-1.703.865-2.681l-.902-1.77c-.242-.476-.655-.827-1.162-.991-.507-.163-1.046-.118-1.541.135l-2.177 1.187zm-13 41c-.551 0-1-.448-1-1 0-.82.68-1.956.997-2 .323.044 1.003 1.18 1.003 2 0 .552-.449 1-1 1zm1.902-11.996-.883-1.774 15.08-8.233.901 1.769zm3.255.492 10.362-5.65 1.24 2.489c-.984.832-3.065 2.512-4.885 3.467-1.8.946-4.309 1.689-5.555 2.027zm3.041 3.874c1.38-.421 3.165-1.04 4.605-1.797 1.416-.744 2.923-1.844 4.057-2.739.728.888 1.14 2.002 1.14 3.166 0 2.757-2.243 5-5 5-2.27 0-4.203-1.514-4.802-3.63zm27.802 11.722c0 .37-.123.738-.345 1.035l-3.355 4.474c-1.127 1.502-2.922 2.399-4.8 2.399s-3.673-.897-4.8-2.399l-3.9-5.2-1.6 1.199 1.8 2.4v6h-15v-7c0-4.963 4.038-9 9-9h1.179c3.319 0 6.437 1.623 8.339 4.342l3.961 5.658h1.989l4.483-5.379c.329-.394.812-.621 1.325-.621.951 0 1.724.773 1.724 1.724zm-2-4.062c-1.003.075-1.936.53-2.585 1.31l-3.883 4.66-3.375-4.805c-.049-.07-.107-.13-.157-.198v-12.997h10zm20-6.03h-18v-4h19v-2h-19v-2h-14v12.86c-1.346-1.128-2.919-1.95-4.612-2.414 1.591-1.284 2.612-3.247 2.612-5.446 0-1.632-.578-3.194-1.599-4.437.149-.13.247-.216.267-.234l.567-.508-.907-1.821h38.672v7c0 1.654-1.346 3-3 3z"/><path d="m30 41h6v2h-6z"/><path d="m30 45h4v2h-4z"/><path d="m30 37h6v2h-6z"/><path d="m19 13h2v2h-2z"/><path d="m57 25h2v2h-2z"/><path d="m57 21h2v2h-2z"/><path d="m57 17h2v2h-2z"/><path d="m21 7h8v-2h-8c-1.103 0-2 .897-2 2v4h2z"/></symbol><symbol id="checklist" viewBox="0 0 496 496"><title>checklist</title><path d="m352.503906 256c4.753906 0 9.351563 1.390625 13.3125 4.03125l55.871094 37.25c6.601562 4.390625 14.273438 6.71875 22.191406 6.71875h52.121094v-16h-52.113281c-4.75 0-9.359375-1.390625-13.320313-4.03125l-22.566406-15.046875v-268.921875h-304v48h-104v448h304v-48h104v-67.304688c.503906-.121093 1.023438-.160156 1.527344-.28125l37.214844-9.300781c8.257812-2.066406 16.753906-3.113281 25.257812-3.113281h24v-16h-24c-9.808594 0-19.617188 1.207031-29.136719 3.585938l-37.214843 9.300781c-19.128907 4.777343-39.488282 4-58.175782-2.230469l-13.480468-4.496094c-12.273438-4.089844-25.054688-6.160156-37.992188-6.160156h-69.808594c0-13.230469 10.769532-24 24-24h88c13.234375 0 24-10.769531 24-24 0-12.273438-9.296875-22.304688-21.191406-23.71875l6.566406-24.28125zm-10.105468 121.832031c12.273437 4.097657 25.058593 6.167969 37.992187 6.167969 3.882813 0 7.753906-.335938 11.609375-.710938v48.710938h-88v-26.167969c2.808594-3.238281 4.984375-7.070312 6.152344-11.40625l6.550781-24.265625c4.121094.839844 8.207031 1.839844 12.21875 3.183594zm-41.726563-9.648437-5.960937 22.0625c-1.550782 5.746094-6.789063 9.753906-12.734376 9.753906h-2.59375c-7.269531 0-13.183593-5.910156-13.183593-13.183594 0-1.167968.152343-2.320312.457031-3.441406l4.152344-15.375h25.191406c1.558594 0 3.113281.121094 4.671875.183594zm-46.441406-.183594-3.023438 11.191406c-.671875 2.480469-1.007812 5.039063-1.007812 7.625 0 10.816406 5.984375 20.167969 14.746093 25.207032l-2.511718 10.03125 15.519531 3.882812 2.488281-9.9375h1.535156c2.0625 0 4.0625-.289062 6.023438-.703125v64.703125h-272v-416h104v-48h272v242.257812l-17.304688-11.539062c-6.597656-4.390625-14.269531-6.71875-22.191406-6.71875h-.617187l33.296875-123.191406c.671875-2.480469 1.007812-5.039063 1.007812-7.625 0-16.09375-13.09375-29.183594-29.183594-29.183594h-2.59375c-13.15625 0-24.742187 8.871094-28.175781 21.574219l-22.238281 82.289062v-135.863281h-168v16h152v176h-16.550781c-8.707031 0-16.90625 2.886719-23.761719 8h-79.6875v16h62.878906l-16 16h-46.878906v16h30.886719l-13.367188 13.367188c-4.71875 4.710937-7.320312 10.984374-7.320312 17.664062 0 13.769531 11.199219 24.96875 24.976562 24.96875 2.464844 0 4.839844-.472656 7.144531-1.160156-.007812.390625-.121093.761718-.121093 1.160156 0 8.824219 7.175781 16 16 16zm61.625-56h-29.910157l33.78125-124.992188 27.441407 9.144532zm-61.375-48.976562c4.472656-4.464844 10.65625-7.023438 16.96875-7.023438h13.054687l-6.527344 24.144531c-10.121093.367188-19.609374 4.367188-26.808593 11.566407l-41.65625 41.65625c-1.671875 1.671874-3.984375 2.632812-6.34375 2.632812-4.953125 0-8.976563-4.023438-8.976563-8.96875 0-2.398438.9375-4.648438 2.632813-6.34375zm8 40c3.023437-3.023438 6.871093-5.085938 10.976562-6.160157l-4.089843 15.136719h-15.855469zm107.253906-190.390626-9.796875 36.246094-27.441406-9.144531 9.183594-33.980469c1.558593-5.746094 6.792968-9.753906 12.734374-9.753906h2.59375c7.273438 0 13.183594 5.910156 13.183594 13.183594 0 1.167968-.152344 2.320312-.457031 3.449218zm-41.414063 42.574219 27.441407 9.144531-4.417969 16.328126-27.441406-9.144532zm9.871094 140.792969c4.410156 0 8 3.59375 8 8s-3.589844 8-8 8h-5.765625l4.328125-16zm0 0"/><path d="m240 80h-208v80h208zm-16 64h-176v-48h176zm0 0"/><path d="m64 112h16v16h-16zm0 0"/><path d="m96 112h16v16h-16zm0 0"/><path d="m128 112h16v16h-16zm0 0"/><path d="m160 112h16v16h-16zm0 0"/><path d="m192 112h16v16h-16zm0 0"/><path d="m128 256h-16v32h-64v-64h48v-16h-64v96h96zm0 0"/><path d="m154.34375 178.34375-74.34375 74.34375-10.34375-10.34375-11.3125 11.3125 21.65625 21.65625 85.65625-85.65625zm0 0"/><path d="m112 424h-64v-64h48v-16h-64v96h96v-48h-16zm0 0"/><path d="m69.65625 378.34375-11.3125 11.3125 21.65625 21.65625 85.65625-85.65625-11.3125-11.3125-74.34375 74.34375zm0 0"/><path d="m256 440h16v16h-16zm0 0"/><path d="m152 440h88v16h-88zm0 0"/><path d="m168 216h104v16h-104zm0 0"/></symbol><symbol id="notebook" viewBox="0 0 60 60"><title>notebook</title><path d="M57.015,0h-4.029C51.339,0,50,1.339,50,2.985V7v6v37.266l4,7V59c0,0.553,0.447,1,1,1s1-0.447,1-1v-1.734l4-7V13V7V2.985 C60,1.339,58.661,0,57.015,0z M52,9h6v2h-6V9z M55,54.984L52.723,51h4.554L55,54.984z M58,49h-6V13h6V49z M52,7V2.985 C52,2.442,52.442,2,52.985,2h4.029C57.558,2,58,2.442,58,2.985V7H52z"/><path d="M0,0v60h10h36V0H10H0z M2,58V2h6v56H2z M44,2v56H10V2H44z"/><path d="M39,24V10H15v14H39z M17,12h20v10H17V12z"/><rect x="20" y="14" width="14" height="2"/><rect x="20" y="18" width="14" height="2"/></symbol><symbol id="presentation" viewBox="0 0 480.001 480.001"><title>presentation</title><g> <g> <path d="M123.584,102.504C114.582,93.2,102.178,87.963,89.232,88h-2.464c-12.933-0.026-25.319,5.21-34.312,14.504 c-8.46,8.698-12.952,20.503-12.416,32.624l0.936,21.536c1.418,24.644,22.039,43.772,46.72,43.336h0.608 c24.681,0.436,45.302-18.692,46.72-43.336L136,135.128C136.536,123.007,132.044,111.202,123.584,102.504z M119.04,156 c-1.084,16.063-14.642,28.414-30.736,28h-0.608c-16.094,0.414-29.652-11.937-30.736-28l-0.28-6.536 c15.25-0.679,29.893-6.174,41.824-15.696c4.92,7.276,12.347,12.485,20.864,14.632L119.04,156z M109.008,118.184 c-0.445-3.412-3.023-6.157-6.4-6.816c-3.365-0.696-6.795,0.854-8.496,3.84c-0.104,0.168-10.032,15.872-38.048,18.272 c-0.069-7.412,2.782-14.553,7.936-19.88c5.973-6.155,14.191-9.62,22.768-9.6h2.464c8.577-0.02,16.795,3.445,22.768,9.6 c4.667,4.863,7.437,11.238,7.808,17.968C114.272,129.094,110.256,124.118,109.008,118.184z"/> </g> </g><g> <g> <path d="M435.584,294.504c-9.002-9.304-21.406-14.541-34.352-14.504h-2.464c-12.933-0.026-25.319,5.21-34.312,14.504 c-8.46,8.698-12.953,20.503-12.416,32.624l0.936,21.536c1.418,24.644,22.039,43.772,46.72,43.336h0.608 c24.681,0.436,45.302-18.692,46.72-43.336L448,327.128C448.536,315.007,444.044,303.202,435.584,294.504z M432,326.48L431.04,348 c-1.084,16.063-14.642,28.414-30.736,28h-0.608c-16.094,0.414-29.652-11.937-30.736-28L368,326.44 c-0.309-7.751,2.584-15.287,8-20.84c5.973-6.155,14.191-9.62,22.768-9.6h2.464c8.577-0.02,16.795,3.445,22.768,9.6 C429.426,311.163,432.32,318.716,432,326.48z"/> </g> </g><g> <g> <path d="M247.134,116.344c-8.584-8.303-22.206-8.303-30.79,0l-89.312,89.312c-1.502,1.502-3.54,2.346-5.664,2.344H40 c-22.08,0.026-39.974,17.92-40,40v112c0,13.255,10.745,24,24,24c2.725,0,5.43-0.463,8-1.368V392c0,4.418,3.582,8,8,8h96 c4.418,0,8-3.582,8-8V262.288c-0.001-2.024,0.765-3.974,2.144-5.456l101.512-109.176 C256.159,138.866,255.925,124.847,247.134,116.344z M236.231,136.469c-0.029,0.028-0.058,0.056-0.087,0.083L134.4,245.944 c-4.12,4.445-6.407,10.283-6.4,16.344V384H48V264c0-4.418-3.582-8-8-8s-8,3.582-8,8v96c0,4.418-3.582,8-8,8s-8-3.582-8-8V248 c0-13.255,10.745-24,24-24h81.368c6.371,0.02,12.485-2.512,16.976-7.032l89.312-89.312c2.435-2.31,6.253-2.31,8.688,0 C238.746,130.121,238.696,134.067,236.231,136.469z"/> </g> </g><g> <g> <path d="M88,232c-4.418,0-8,3.582-8,8v96c0,4.418,3.582,8,8,8s8-3.582,8-8v-96C96,235.582,92.418,232,88,232z"/> </g> </g><g> <g> <path d="M259.544,294.504c-8.993-9.294-21.379-14.53-34.312-14.504h-2.464c-12.933-0.026-25.319,5.21-34.312,14.504 c-8.46,8.698-12.953,20.503-12.416,32.624l0.936,21.536c1.418,24.644,22.039,43.772,46.72,43.336h0.608 c24.681,0.436,45.302-18.692,46.72-43.336l0.936-21.536C272.497,315.007,268.004,303.202,259.544,294.504z M256,326.48L255.04,348 c-1.084,16.063-14.642,28.414-30.736,28h-0.608c-16.094,0.414-29.652-11.937-30.736-28L192,326.44 c-0.309-7.751,2.584-15.287,8-20.84c5.973-6.155,14.191-9.62,22.768-9.6h2.464c8.577-0.02,16.795,3.445,22.768,9.6 C253.426,311.163,256.32,318.716,256,326.48z"/> </g> </g><g> <g> <path d="M265.336,400h-82.672c-21.344,0.022-38.642,17.32-38.664,38.664V472c0,4.418,3.582,8,8,8s8-3.582,8-8v-33.336 c0.013-12.512,10.153-22.651,22.664-22.664h82.672c12.512,0.013,22.651,10.152,22.664,22.664V472c0,4.418,3.582,8,8,8s8-3.582,8-8 v-33.336C303.978,417.32,286.68,400.022,265.336,400z"/> </g> </g><g> <g> <path d="M441.336,400h-82.672c-21.344,0.022-38.642,17.32-38.664,38.664V472c0,4.418,3.582,8,8,8s8-3.582,8-8v-33.336 c0.013-12.512,10.153-22.651,22.664-22.664h82.672c12.512,0.013,22.651,10.152,22.664,22.664V472c0,4.418,3.582,8,8,8s8-3.582,8-8 v-33.336C479.978,417.32,462.68,400.022,441.336,400z"/> </g> </g><g> <g> <path d="M456.4,0H175.6c-13.137,0.128-23.693,10.863-23.6,24v120c0,4.418,3.582,8,8,8s8-3.582,8-8V48h296v192 c0.103,4.305-3.295,7.882-7.6,8h-273c-4.418,0-8,3.582-8,8s3.582,8,8,8h273c13.137-0.128,23.693-10.863,23.6-24V24 C480.093,10.863,469.537,0.128,456.4,0z M464,32H168v-8c-0.103-4.305,3.295-7.882,7.6-8h280.8c4.305,0.118,7.703,3.695,7.6,8V32z"/> </g> </g><g> <g> <path d="M440,102c-4.418,0-8,3.582-8,8v114c0,4.418,3.582,8,8,8s8-3.582,8-8V110C448,105.582,444.418,102,440,102z"/> </g> </g><g> <g> <path d="M408,152c-4.418,0-8,3.582-8,8v64c0,4.418,3.582,8,8,8s8-3.582,8-8v-64C416,155.582,412.418,152,408,152z"/> </g> </g><g> <g> <path d="M376,136c-4.418,0-8,3.582-8,8v80c0,4.418,3.582,8,8,8s8-3.582,8-8v-80C384,139.582,380.418,136,376,136z"/> </g> </g><g> <g> <path d="M344,184c-4.418,0-8,3.582-8,8v32c0,4.418,3.582,8,8,8s8-3.582,8-8v-32C352,187.582,348.418,184,344,184z"/> </g> </g><g> <g> <path d="M444.44,65.344c-3.676-2.452-8.644-1.46-11.096,2.216l-27.312,40.96L380.8,89.6c-3.521-2.669-8.539-1.977-11.208,1.544 c-0.304,0.401-0.569,0.829-0.792,1.28l-31.152,62.312L307.2,177.6c-3.535,2.651-4.251,7.665-1.6,11.2 c2.651,3.535,7.665,4.251,11.2,1.6l32-24c1.008-0.742,1.83-1.709,2.4-2.824l27.704-55.424L403.2,126.4 c3.534,2.651,8.549,1.936,11.2-1.599c0.089-0.118,0.174-0.239,0.256-0.361l32-48C449.108,72.764,448.116,67.796,444.44,65.344z"/> </g> </g><g> <g> <path d="M288,64h-96c-4.418,0-8,3.582-8,8s3.582,8,8,8h96c4.418,0,8-3.582,8-8S292.418,64,288,64z"/> </g> </g><g> <g> <path d="M336,64h-16c-4.418,0-8,3.582-8,8s3.582,8,8,8h16c4.418,0,8-3.582,8-8S340.418,64,336,64z"/> </g> </g></symbol><symbol id="students-group-with-one-talking" viewBox="0 0 29.127 29.128"><title>students-group-with-one-talking</title><path d="M22.471,15.103c0,1.021,0.824,1.847,1.849,1.847c1.021,0,1.845-0.826,1.845-1.847c0-1.021-0.824-1.847-1.845-1.847 C23.295,13.254,22.471,14.081,22.471,15.103z"/><path d="M21.66,20.878c0,1.465,1.19,2.657,2.659,2.657c1.463,0,2.654-1.192,2.654-2.657c0-1.468-1.191-2.659-2.654-2.659 C22.85,18.219,21.66,19.41,21.66,20.878z"/><polygon points="27.485,24.576 25.344,23.932 24.364,25.107 23.352,23.932 21.004,24.576 21.004,29.056 27.633,29.056 "/><path d="M14.808,18.293c-1.467,0-2.659,1.191-2.659,2.658c0,1.465,1.192,2.657,2.659,2.657c1.466,0,2.656-1.192,2.656-2.657 C17.463,19.485,16.272,18.293,14.808,18.293z"/><polygon points="15.835,24.006 14.852,25.183 13.842,24.006 11.494,24.65 11.494,29.128 18.124,29.128 17.975,24.65 "/><circle cx="19.487" cy="17.242" r="1.944"/><path d="M21.91,23.107c-0.347-0.654-0.588-1.364-0.588-2.156c0-0.521,0.141-1.005,0.298-1.474H21.43h-0.473h-0.723l-0.717,0.86 l-0.739-0.86h-0.761h-0.424c0.196,0.455,0.31,0.952,0.31,1.472c0,0.855-0.3,1.638-0.794,2.278h4.803L21.91,23.107z"/><circle cx="6.152" cy="10.675" r="3.732"/><polygon points="14.664,12.543 9.908,14.967 7.51,14.967 6.089,16.617 4.711,14.967 1.703,15.612 1.495,22.236 2.775,22.236 2.826,23.264 9.576,23.264 9.903,16.904 15.242,14.289 "/><path d="M13.141,8.3l-1.498,2.234l0.581-0.046c0.04-0.004,3.914-0.328,6.596-0.923c3.521-0.778,5.616-2.336,5.755-4.273 c0.186-2.635-2.781-4.998-6.612-5.267c-3.83-0.27-7.097,1.654-7.282,4.289C10.575,5.807,11.49,7.281,13.141,8.3z M17.924,0.586 c3.521,0.248,6.254,2.341,6.088,4.667c-0.166,2.373-3.771,3.423-5.312,3.764c-2.027,0.449-4.753,0.743-5.935,0.857l1.178-1.76 L13.68,7.965c-1.622-0.913-2.534-2.265-2.44-3.612C11.406,2.028,14.402,0.339,17.924,0.586z"/></symbol></svg>